<svg width="20" height="20" viewBox="0 0 20 20" fill="none" xmlns="http://www.w3.org/2000/svg">
<path opacity="0.4" d="M7.45584 4.23433H12.5747V3.04248H7.45584V4.23433ZM6.29138 3.09143V3.09736C5.89179 3.1337 5.49649 3.21306 5.11191 3.33247V3.32802C5.08546 3.33914 5.06259 3.34434 5.04043 3.35546C5.00969 3.36288 4.97967 3.374 4.95107 3.38809C4.86672 3.41554 4.78237 3.44817 4.70303 3.48154C4.66085 3.49786 4.61868 3.51937 4.5765 3.53568C4.5186 3.56313 4.4557 3.59576 4.39779 3.6232L4.25483 3.70552C4.21265 3.72703 4.17548 3.75447 4.13331 3.77969C3.91814 3.91838 3.71871 4.0808 3.53857 4.26548L3.52785 4.2766C3.46423 4.35077 3.40132 4.419 3.34342 4.4902L3.3327 4.50058C2.74797 5.30751 2.45489 6.30208 2.50564 7.30999V7.62965H3.66009V7.30703C3.66009 5.90232 4.10757 5.0279 5.10333 4.57994C5.48362 4.419 5.88535 4.31962 6.29424 4.28328H6.30496V3.09662L6.29138 3.09143ZM16.67 4.49613L16.665 4.48575C16.6057 4.41084 16.542 4.33964 16.4748 4.27215L16.4684 4.26103C16.2861 4.07784 16.0845 3.91467 15.8687 3.77524C15.8315 3.75299 15.7972 3.72555 15.7529 3.70107C15.7085 3.6766 15.6578 3.64619 15.6049 3.61875C15.5534 3.59131 15.4891 3.55868 15.4262 3.53123C15.3897 3.51492 15.3468 3.49341 15.3004 3.47709C15.2196 3.44372 15.1417 3.41109 15.058 3.38364C15.0266 3.37326 15.0001 3.36214 14.9687 3.35101C14.9372 3.33989 14.9201 3.33395 14.8972 3.32357V3.3295C14.5119 3.2101 14.1166 3.13148 13.717 3.0944V4.27512C14.1209 4.31072 14.5169 4.41084 14.8908 4.57178C15.3604 4.76462 15.7493 5.11987 15.9923 5.57748C16.2454 6.11221 16.3648 6.70406 16.3405 7.29887V7.62965H17.4942V7.30703C17.5457 6.29911 17.254 5.3038 16.67 4.49613Z" fill="#751903"/>
<path d="M13.75 2.26396V4.89024C13.75 5.22114 13.4815 5.48916 13.15 5.48916C12.8185 5.48916 12.55 5.22114 12.55 4.89024V2.26995C12.547 1.93904 12.814 1.66878 13.1455 1.66652C13.477 1.66429 13.7478 1.93006 13.75 2.26096V2.26396ZM7.45 2.27347V4.89326C7.45 5.2256 7.18118 5.49506 6.84963 5.49506C6.51808 5.49506 6.25 5.2256 6.25 4.89326V2.27347C6.25 1.94113 6.51808 1.67242 6.84963 1.67242C7.18118 1.67242 7.45 1.94113 7.45 2.27347ZM17.5 7.62978V14.0916C17.5 16.9095 15.9263 18.3332 12.8076 18.3332H7.18526C4.07368 18.3332 2.5 16.9095 2.5 14.0916V7.62978H17.5ZM13.4299 13.5384C13.0436 13.5384 12.7361 13.8556 12.7361 14.2466C12.7432 14.6375 13.0508 14.9547 13.4299 14.9547C13.809 14.9547 14.1166 14.6375 14.1166 14.2466C14.1166 13.8556 13.809 13.5384 13.4299 13.5384ZM10.0036 13.531C9.61731 13.5384 9.30973 13.8556 9.30973 14.2466C9.30973 14.6375 9.62446 14.9547 10.0036 14.9547C10.3827 14.9547 10.6903 14.6375 10.6903 14.2392C10.6831 13.8556 10.3827 13.5384 10.0036 13.531ZM6.5701 13.531C6.18383 13.531 5.87625 13.8556 5.8834 14.2466C5.8834 14.6375 6.19099 14.9547 6.5701 14.9547C6.94921 14.9547 7.2568 14.6301 7.2568 14.2392C7.2568 13.8482 6.94921 13.531 6.5701 13.531ZM13.4299 10.514C13.0436 10.514 12.7432 10.8312 12.7432 11.2222C12.7432 11.6131 13.0508 11.9303 13.4299 11.9303C13.809 11.9303 14.1166 11.6131 14.1166 11.2222C14.1166 10.8312 13.809 10.514 13.4299 10.514ZM10.0036 10.5066C9.61731 10.514 9.30973 10.8312 9.30973 11.2222C9.30973 11.6131 9.62446 11.9303 10.0036 11.9303C10.3827 11.9303 10.6903 11.6131 10.6903 11.2148C10.6903 10.8312 10.3827 10.514 10.0036 10.5066ZM6.57725 10.5066C6.19099 10.5066 5.8834 10.8312 5.8834 11.2222C5.8834 11.6131 6.19099 11.9303 6.5701 11.9303C6.95637 11.9303 7.26395 11.6057 7.2568 11.2148C7.2568 10.8238 6.94921 10.5066 6.57725 10.5066Z" fill="#751903"/>
</svg>
