<svg width="24" height="24" viewBox="0 0 24 24" fill="none" xmlns="http://www.w3.org/2000/svg">
<path opacity="0.4" d="M8.947 5.08152H15.0897V3.65131H8.947V5.08152ZM7.54965 3.71005V3.71717C7.07015 3.76078 6.59578 3.856 6.13429 3.99929V3.99395C6.10255 4.0073 6.0751 4.01353 6.04851 4.02688C6.01163 4.03578 5.9756 4.04913 5.94129 4.06604C5.84007 4.09897 5.73885 4.13813 5.64363 4.17818C5.59302 4.19776 5.54241 4.22357 5.4918 4.24315C5.42232 4.27608 5.34683 4.31524 5.27735 4.34817L5.10579 4.44696C5.05518 4.47277 5.01058 4.5057 4.95997 4.53596C4.70177 4.70239 4.46245 4.8973 4.24628 5.1189L4.23342 5.13225C4.15707 5.22125 4.08159 5.30313 4.0121 5.38857L3.99924 5.40103C3.29756 6.36934 2.94586 7.56282 3.00677 8.77232V9.15591H4.39211V8.76876C4.39211 7.08312 4.92909 6.03382 6.124 5.49626C6.58034 5.30313 7.06243 5.18387 7.55308 5.14026H7.56595V3.71628L7.54965 3.71005ZM20.004 5.39569L19.998 5.38323C19.9268 5.29334 19.8504 5.2079 19.7698 5.12691L19.7621 5.11356C19.5434 4.89374 19.3015 4.69794 19.0424 4.53062C18.9978 4.50392 18.9566 4.47099 18.9034 4.44162C18.8503 4.41225 18.7893 4.37576 18.7259 4.34283C18.6641 4.3099 18.5869 4.27074 18.5114 4.23781C18.4677 4.21823 18.4162 4.19242 18.3605 4.17284C18.2635 4.13279 18.17 4.09363 18.0697 4.0607C18.0319 4.04824 18.0002 4.03489 17.9624 4.02154C17.9247 4.00819 17.9041 4.00107 17.8767 3.98861V3.99573C17.4143 3.85244 16.9399 3.75811 16.4604 3.71361V5.13047C16.9451 5.17319 17.4203 5.29334 17.8689 5.48647C18.4325 5.71787 18.8991 6.14418 19.1908 6.6933C19.4945 7.33498 19.6377 8.0452 19.6085 8.75897V9.15591H20.993V8.76876C21.0548 7.55926 20.7048 6.36489 20.004 5.39569Z" fill="#751903"/>
<path d="M16.5 2.71691V5.86845C16.5 6.26553 16.1778 6.58716 15.78 6.58716C15.3822 6.58716 15.06 6.26553 15.06 5.86845V2.7241C15.0564 2.32702 15.3768 2.0027 15.7746 1.99999C16.1724 1.99731 16.4973 2.31623 16.5 2.71332V2.71691ZM8.94 2.72833V5.87207C8.94 6.27088 8.61741 6.59424 8.21955 6.59424C7.82169 6.59424 7.5 6.27088 7.5 5.87207V2.72833C7.5 2.32953 7.82169 2.00707 8.21955 2.00707C8.61741 2.00707 8.94 2.32953 8.94 2.72833ZM21 9.1559V16.9101C21 20.2916 19.1116 22 15.3691 22H8.62232C4.88841 22 3 20.2916 3 16.9101V9.1559H21ZM16.1159 16.2463C15.6524 16.2463 15.2833 16.6269 15.2833 17.096C15.2918 17.5652 15.6609 17.9458 16.1159 17.9458C16.5708 17.9458 16.9399 17.5652 16.9399 17.096C16.9399 16.6269 16.5708 16.2463 16.1159 16.2463ZM12.0043 16.2374C11.5408 16.2463 11.1717 16.6269 11.1717 17.096C11.1717 17.5652 11.5494 17.9458 12.0043 17.9458C12.4592 17.9458 12.8283 17.5652 12.8283 17.0872C12.8197 16.6269 12.4592 16.2463 12.0043 16.2374ZM7.88412 16.2374C7.4206 16.2374 7.0515 16.6269 7.06009 17.096C7.06009 17.5652 7.42918 17.9458 7.88412 17.9458C8.33906 17.9458 8.70815 17.5563 8.70815 17.0872C8.70815 16.618 8.33906 16.2374 7.88412 16.2374ZM16.1159 12.617C15.6524 12.617 15.2918 12.9976 15.2918 13.4668C15.2918 13.9359 15.6609 14.3165 16.1159 14.3165C16.5708 14.3165 16.9399 13.9359 16.9399 13.4668C16.9399 12.9976 16.5708 12.617 16.1159 12.617ZM12.0043 12.6081C11.5408 12.617 11.1717 12.9976 11.1717 13.4668C11.1717 13.9359 11.5494 14.3165 12.0043 14.3165C12.4592 14.3165 12.8283 13.9359 12.8283 13.4579C12.8283 12.9976 12.4592 12.617 12.0043 12.6081ZM7.8927 12.6081C7.42918 12.6081 7.06009 12.9976 7.06009 13.4668C7.06009 13.9359 7.42918 14.3165 7.88412 14.3165C8.34764 14.3165 8.71674 13.9271 8.70815 13.4579C8.70815 12.9888 8.33906 12.6081 7.8927 12.6081Z" fill="#751903"/>
</svg>
