<svg width="24" height="24" viewBox="0 0 24 24" fill="none" xmlns="http://www.w3.org/2000/svg">
<path opacity="0.4" d="M16.191 2H7.81C4.77 2 3 3.78 3 6.83V17.16C3 20.26 4.77 22 7.81 22H16.191C19.28 22 21 20.26 21 17.16V6.83C21 3.78 19.28 2 16.191 2Z" fill="#751903"/>
<path d="M8.08 15.74H15.92C16.319 15.78 16.62 16.12 16.62 16.53C16.62 16.929 16.319 17.27 15.92 17.31H8.08C7.78 17.35 7.49 17.2 7.33 16.95C7.17 16.69 7.17 16.36 7.33 16.11C7.49 15.85 7.78 15.71 8.08 15.74ZM15.92 11.179C16.35 11.179 16.7 11.53 16.7 11.96C16.7 12.39 16.35 12.74 15.92 12.74H8.08C7.649 12.74 7.3 12.39 7.3 11.96C7.3 11.53 7.649 11.179 8.08 11.179H15.92ZM11.069 6.64999C11.5 6.64999 11.85 6.99999 11.85 7.42899C11.85 7.86999 11.5 8.21999 11.069 8.21999H8.08C7.649 8.21999 7.3 7.86999 7.3 7.43999C7.3 7.00999 7.649 6.65999 8.08 6.65999V6.64999H11.069Z" fill="#751903"/>
</svg>
