<svg width="20" height="20" viewBox="0 0 20 20" fill="none" xmlns="http://www.w3.org/2000/svg">
<path opacity="0.4" d="M14.0704 4.26221H11.6178C11.0068 4.26625 10.4267 3.99446 10.0396 3.52276L9.23192 2.40619C8.85122 1.93035 8.27116 1.65729 7.66109 1.66674H5.92725C2.81524 1.66674 1.66675 3.49318 1.66675 6.59887V9.95597C1.66289 10.3252 18.3298 10.3247 18.3309 9.95597V8.97989C18.3457 5.87421 17.2268 4.26221 14.0704 4.26221Z" fill="#751903"/>
<path d="M14.0629 4.26223C15.1503 4.17814 16.2295 4.50547 17.086 5.17915C17.1847 5.2628 17.2764 5.35429 17.3602 5.45274C17.6268 5.76448 17.8328 6.12307 17.9678 6.51015C18.2333 7.30572 18.3562 8.14177 18.3308 8.97992V13.3575C18.3298 13.7262 18.3025 14.0944 18.2493 14.4592C18.148 15.1032 17.9215 15.7211 17.5825 16.2783C17.4267 16.5474 17.2375 16.7958 17.0194 17.0177C16.032 17.9239 14.7209 18.3956 13.3813 18.3266H6.60892C5.26716 18.3951 3.95393 17.9236 2.96342 17.0177C2.74792 16.7954 2.56122 16.547 2.4077 16.2783C2.07071 15.7215 1.84899 15.103 1.75566 14.4592C1.69632 14.095 1.66675 13.7265 1.66675 13.3575V8.97992C1.66675 8.61432 1.68639 8.24898 1.72603 7.88553C1.74825 7.71546 1.80012 7.55278 1.80012 7.3901C1.87534 6.9515 2.01255 6.52576 2.20765 6.12564C2.78559 4.89076 3.97112 4.26223 5.91243 4.26223H14.0629ZM14.263 11.5754H5.80869C5.42812 11.5754 5.1196 11.8833 5.1196 12.2631C5.1196 12.6429 5.42812 12.9508 5.80869 12.9508H14.2111C14.3952 12.9588 14.5748 12.8929 14.7098 12.7678C14.8448 12.6428 14.9241 12.469 14.9299 12.2853C14.9403 12.1237 14.8871 11.9646 14.7817 11.8416C14.6604 11.6763 14.4682 11.5777 14.263 11.5754Z" fill="#751903"/>
</svg>
