<svg width="18" height="20" viewBox="0 0 18 20" fill="none" xmlns="http://www.w3.org/2000/svg">
<path d="M6.63101 17.3095V14.7539C6.631 14.1039 7.16093 13.5757 7.81751 13.5713H10.2226C10.8823 13.5713 11.4171 14.1008 11.4171 14.7539V17.3175C11.4169 17.8694 11.8619 18.3204 12.4192 18.3334H14.0226C15.6209 18.3334 16.9167 17.0506 16.9167 15.4682V8.19822C16.9081 7.57571 16.6129 6.99115 16.115 6.61088L10.6314 2.23777C9.67078 1.47633 8.30517 1.47633 7.34452 2.23777L1.88502 6.61882C1.38522 6.99754 1.08949 7.58308 1.08334 8.20615V15.4682C1.08334 17.0506 2.37907 18.3334 3.97743 18.3334H5.5808C6.15196 18.3334 6.61498 17.875 6.61498 17.3095" fill="#751903"/>
<path d="M6.63102 17.3095V14.7539C6.631 14.1039 7.16093 13.5757 7.81751 13.5713H10.2226C10.8823 13.5713 11.4171 14.1008 11.4171 14.7539V17.3175C11.4169 17.8694 11.8619 18.3204 12.4192 18.3334H14.0226C15.6209 18.3334 16.9167 17.0506 16.9167 15.4682V8.19822C16.9081 7.57571 16.6129 6.99114 16.115 6.61088L10.6314 2.23777C9.67078 1.47633 8.30517 1.47633 7.34452 2.23777L1.88502 6.61882C1.38522 6.99754 1.08949 7.58308 1.08334 8.20615V15.4682C1.08334 17.0506 2.37907 18.3334 3.97743 18.3334H5.5808C6.15196 18.3334 6.61498 17.875 6.61498 17.3095" stroke="#751903" stroke-width="1.5" stroke-linecap="round" stroke-linejoin="round"/>
</svg>
