<svg width="18" height="20" viewBox="0 0 18 20" fill="none" xmlns="http://www.w3.org/2000/svg">
<path d="M6.63102 17.3096V14.754C6.63101 14.1039 7.16094 13.5758 7.81752 13.5714H10.2226C10.8823 13.5714 11.4171 14.1009 11.4171 14.754V17.3175C11.4169 17.8694 11.8619 18.3205 12.4192 18.3334H14.0226C15.6209 18.3334 16.9167 17.0506 16.9167 15.4683V8.19828C16.9081 7.57577 16.6129 6.99121 16.115 6.61094L10.6314 2.23783C9.67079 1.47639 8.30518 1.47639 7.34452 2.23783L1.88503 6.61888C1.38523 6.9976 1.0895 7.58314 1.08334 8.20621V15.4683C1.08334 17.0506 2.37907 18.3334 3.97744 18.3334H5.58081C6.15197 18.3334 6.61499 17.875 6.61499 17.3096" stroke="#751903" stroke-width="1.5" stroke-linecap="round" stroke-linejoin="round"/>
</svg>
