<svg width="20" height="20" viewBox="0 0 20 20" fill="none" xmlns="http://www.w3.org/2000/svg">
<g opacity="0.5">
<path d="M9.64918 10.0466C11.8482 10.0466 13.6308 8.26399 13.6308 6.06498C13.6308 3.86597 11.8482 2.08331 9.64918 2.08331C7.45016 2.08331 5.66751 3.86597 5.66751 6.06498C5.66751 8.26399 7.45016 10.0466 9.64918 10.0466Z" stroke="#751903" stroke-width="1.5" stroke-linecap="round" stroke-linejoin="round"/>
<path fill-rule="evenodd" clip-rule="evenodd" d="M3.33336 15.5844C3.3323 15.3045 3.3949 15.0281 3.51644 14.7759C3.89782 14.0131 4.97334 13.6089 5.86579 13.4258C6.50942 13.2884 7.16194 13.1967 7.81849 13.1512C9.03405 13.0444 10.2566 13.0444 11.4722 13.1512C12.1287 13.1972 12.7812 13.289 13.4249 13.4258C14.3173 13.6089 15.3929 13.975 15.7743 14.7759C16.0187 15.2899 16.0187 15.8866 15.7743 16.4006C15.3929 17.2015 14.3173 17.5677 13.4249 17.7431C12.782 17.8861 12.1293 17.9805 11.4722 18.0253C10.4828 18.1092 9.48884 18.1245 8.49737 18.0711C8.26853 18.0711 8.04733 18.0711 7.81849 18.0253C7.16388 17.981 6.51362 17.8867 5.87342 17.7431C4.97334 17.5677 3.90545 17.2015 3.51644 16.4006C3.39552 16.1455 3.33298 15.8667 3.33336 15.5844Z" stroke="#751903" stroke-width="1.5" stroke-linecap="round" stroke-linejoin="round"/>
</g>
</svg>
