<svg width="20" height="20" viewBox="0 0 20 20" fill="none" xmlns="http://www.w3.org/2000/svg">
<path opacity="0.4" d="M10 10.9265C12.5888 10.9265 14.6875 8.85358 14.6875 6.2965C14.6875 3.73943 12.5888 1.6665 10 1.6665C7.41117 1.6665 5.3125 3.73943 5.3125 6.2965C5.3125 8.85358 7.41117 10.9265 10 10.9265Z" fill="#751903"/>
<path d="M17.4919 15.563C17.4961 15.4971 17.4961 15.431 17.4919 15.3651C17.4733 15.1216 17.4042 14.8838 17.2884 14.665C16.8328 13.7745 15.5552 13.3712 14.4892 13.1429C13.7287 12.9846 12.956 12.8828 12.1783 12.8385L11.3646 12.7776H10.9984H10.5427H9.45232H8.99664H8.63047L7.81675 12.8385C7.03905 12.8828 6.26632 12.9846 5.50579 13.1429C4.43982 13.3408 3.16228 13.7517 2.7066 14.665C2.59082 14.8838 2.52172 15.1216 2.50317 15.3651C2.49894 15.431 2.49894 15.4971 2.50317 15.563C2.49927 15.6289 2.49927 15.6949 2.50317 15.7608C2.5253 16.0023 2.59715 16.2375 2.71474 16.4534C3.17042 17.3438 4.44796 17.7471 5.51393 17.9755C6.27587 18.1264 7.04802 18.2281 7.82489 18.2799L8.63861 18.3331H8.8339H9.00478H11.0065H11.1774H11.3727L12.1864 18.2799C12.9633 18.2281 13.7354 18.1264 14.4974 17.9755C15.5633 17.77 16.8409 17.3666 17.2966 16.4534C17.4087 16.2306 17.4776 15.991 17.5 15.7456C17.501 15.6846 17.4983 15.6237 17.4919 15.563Z" fill="#751903"/>
</svg>
