<svg width="12" height="14" viewBox="0 0 12 14" fill="none" xmlns="http://www.w3.org/2000/svg">
<path d="M6 14C9.30283 14 12 11.3787 12 8.16896C12 7.65849 11.9423 7.14806 11.8075 6.65663C11.7664 6.50819 11.6956 6.36907 11.5992 6.24721C11.5028 6.12535 11.3827 6.02314 11.2456 5.9464C11.1086 5.86967 10.9573 5.81993 10.8005 5.80001C10.6436 5.78009 10.4843 5.79039 10.3316 5.83031C10.1788 5.87024 10.0357 5.93901 9.91026 6.0327C9.78487 6.12639 9.6797 6.24317 9.60074 6.37636C9.52179 6.50955 9.4706 6.65656 9.4501 6.80898C9.42961 6.96139 9.4402 7.11624 9.48128 7.26468C9.5627 7.5616 9.60963 7.86331 9.60963 8.16896C9.60963 10.117 8.00452 11.6769 6 11.6769C3.99548 11.6769 2.39038 10.117 2.39038 8.16896C2.39038 6.43681 3.68486 5.0793 5.37433 4.78571L5.14973 5.00399C4.92423 5.22314 4.79754 5.52038 4.79754 5.83031C4.79754 6.14024 4.92423 6.43748 5.14973 6.65663C5.37524 6.87579 5.68109 6.99891 6 6.99891C6.31891 6.99891 6.62476 6.87579 6.85027 6.65663L9.25668 4.31798C9.4776 4.09963 9.60139 3.80567 9.60139 3.49945C9.60139 3.19324 9.4776 2.89928 9.25668 2.68093L6.85027 0.342275C6.62476 0.12312 6.31891 -6.77463e-08 6 -7.15493e-08C5.68109 -7.53523e-08 5.37524 0.12312 5.14973 0.342275C4.92423 0.561429 4.79754 0.858667 4.79754 1.1686C4.79754 1.47853 4.92423 1.77577 5.14973 1.99492L5.58289 2.41588C2.48321 2.63662 1.06097e-07 5.10289 6.95344e-08 8.16896C3.12586e-08 11.3787 2.69717 14 6 14Z" fill="#3F0C00"/>
</svg>
